<svg width="1000" height="1000" viewBox="0 0 1000 1000" fill="none" xmlns="http://www.w3.org/2000/svg">
<g clip-path="url(#clip0_103_2011)">
<rect width="1000" height="1000" rx="80" transform="matrix(-1 0 0 1 1000 0)" fill="white"/>
<rect width="1000" height="1000" transform="matrix(-1 0 0 1 1000 0)" fill="#FFDE97"/>
<path d="M377.137 326.365C377.137 339.749 377.63 353.07 379.637 366.002C383.021 387.8 376 388.729 379.637 409.365C382.637 433.865 378.171 441.382 395.137 462.365C410.084 480.852 406.823 501.557 426.137 516.912C449.838 535.755 476.558 552.017 505.637 565.152C535.547 578.662 567.954 588.864 602.137 595.163C619.859 598.429 638.059 600.646 656.637 601.731C665.39 602.242 668.59 613.5 677.5 613.5C690.864 619.998 708.5 604.5 719 599C739.203 597.116 747.5 580.5 764 574.5C778.902 571.019 798.424 552.431 812.5 547.5C837.523 538.736 853.642 522.884 875.5 510C918.4 484.714 942.355 484.786 969 447C987.219 421.163 968.502 413.426 977.001 383.5C980 361 977 340.26 977 316C977 307.073 977.903 275.234 977 266.5C974.94 246.562 983.445 238.668 977 220C972.201 206.099 978.296 191.5 979 176C970.199 159.67 982.5 144.5 975 128.5C966.34 117.879 964.793 110.621 954.637 101.002C942.745 89.7382 932.239 85.4513 918.5 75.729C906.626 67.3256 886.102 56.8545 873 49.729C856.533 40.7733 831.153 21.9572 813 15.229C794.271 8.28731 796.357 2.54603 776.137 -1.77288C760.194 -5.17836 743.835 -7.72878 727.137 -9.36152C712.708 -10.7724 698.025 -11.498 683.137 -11.498C675.413 -11.498 667.744 -11.3027 660.137 -10.9177C629.844 -9.38453 605.897 -8.96376 578 -1.771C553.848 4.45624 528.755 26.758 507 36.729C485.04 46.7941 464.945 58.8227 446 72.229C432.262 81.9513 415.529 82.3492 403.637 93.6129C386.818 109.544 383.137 126.865 379.637 144.865C374.119 153.004 381.137 189.365 379.637 197.365C373.719 208.346 381.637 224.865 379.637 237.865C375.847 247.985 382.16 259.328 379.637 269.865C374.991 289.27 382.208 306.865 377.137 326.365Z" fill="#9B5300"/>
<path d="M421 365C421 378.384 418.992 390.068 421 403C424.383 424.798 430.363 408.864 434 429.5C437 454 340.17 453.245 357.136 474.229C372.084 492.716 368.822 513.421 388.136 528.776C411.838 547.619 438.558 563.881 467.636 577.015C497.547 590.526 529.953 600.728 564.136 607.027C581.859 610.293 600.059 612.51 618.636 613.595C627.389 614.106 629.589 566 638.5 566C651.863 572.498 670.5 616.364 681 610.864C701.202 608.98 684.5 569.5 701 563.5C715.901 560.019 735.423 546.431 749.5 541.5C774.522 532.736 805.141 511.384 827 498.5C869.899 473.214 867.5 474.229 916.636 448.5C936 425.5 943.999 426.136 943.999 397C946.999 374.5 941 350.081 941 325.821C941 316.893 944.902 279.234 943.999 270.5C941.939 250.562 950.444 238.667 943.999 220C939.2 206.099 943.295 184.5 943.999 169C941 147 944.5 156.364 937 140.364C928.339 129.743 926.792 122.485 916.636 112.866C901.5 105 885.238 101.722 871.5 92C859.625 83.5966 840.101 72.1254 827 65C810.533 56.0442 787.152 38.7281 769 32C750.271 25.0583 748.219 14.4116 728 10.0927C702 -8.50004 704.198 -6.86704 687.5 -8.49978C673.07 -9.91066 660.024 0.365679 645.136 0.365679C637.412 0.365679 637.607 12.615 630 13C601 24 590.897 41.4 563 48.5927C540 58 526.254 74.1217 504.5 84.0927C482.54 94.1578 467.444 102.594 448.5 116C434.761 125.722 432.891 134.236 421 145.5C416 169 424.5 177 421 195C415.481 203.139 422.5 238 421 246C415.082 256.98 423 276.5 421 289.5C417.209 299.619 423.522 323.963 421 334.5C416.354 353.904 426.07 345.5 421 365Z" fill="#FFAB21"/>
<path d="M32.4997 728C32.4997 752.797 25.7926 786.406 32.4997 809.5C34.4997 835 32.4997 877.5 32.4997 896.5C32.4997 922 35.5145 939.194 54.9997 957.5C103.5 989 134.5 1002 155 1026.62C202.423 1044.83 255.277 1055 311 1055C344.018 1055 376.029 1051.43 406.5 1044.73C430.18 1039.53 452.93 1032.43 474.5 1023.66C518.434 1005.78 565.972 991.089 598 961C610.914 948.868 614.188 925.718 624.684 912C639.237 892.98 649.23 909.044 658.5 887.5C672.354 855.304 703.5 743 688.5 738.5C688.5 718.671 679.728 708.782 675.389 690C672.552 677.725 668.832 665.709 664.286 654C658.447 638.961 651.245 624.428 642.799 610.5C623.947 579.41 598.9 551.337 569 527.388C552.132 513.877 533.718 501.679 514 490.993C489.087 477.491 462.092 466.403 433.5 458.13C395.15 447.033 371.926 443 329 443C289.228 443 274.418 481.406 238.5 490.993C186.557 504.857 129.118 539.527 89.9997 569.5C66.0331 587.864 56.4478 581.001 38.9997 604C30.4997 629.5 36.9997 635 32.4997 653.5C28.4997 685.5 32.4997 695.212 32.4997 728Z" fill="#9B5300"/>
<path d="M68.542 844.633C68.542 858.017 66.5346 869.701 68.542 882.633C71.9257 904.431 70 896 76 913.5C86 939 81.5339 921.016 98.5 942C118 958 136.186 957.645 155.5 973C179.201 991.843 207.921 999.865 237 1013C266.91 1026.51 243.317 1014.7 277.5 1021C295.222 1024.27 267.464 1023.92 286.042 1025C294.795 1025.51 277.132 1045.63 286.042 1045.63C299.405 1052.13 311 1036.5 321.5 1031C341.702 1029.12 332.042 1049.13 348.542 1043.13C363.444 1039.65 382.965 1026.06 397.042 1021.13C422.064 1012.37 447.641 1009.38 469.5 996.5C512.399 971.214 515.042 970.229 564.179 944.5C583.542 921.5 591.542 905.769 591.542 876.633C594.542 854.133 588.543 829.714 588.543 805.454C588.543 796.526 592.444 758.867 591.542 750.133C589.482 730.194 597.987 718.3 591.542 699.633C586.743 685.732 590.837 664.133 591.542 648.633C588.543 626.633 592.042 635.997 584.542 619.997C575.882 609.376 574.335 602.118 564.179 592.498C549.042 584.633 532.781 581.355 519.042 571.633C507.167 563.229 487.644 551.758 474.542 544.633C458.075 535.677 434.695 518.361 416.542 511.633C397.813 504.691 395.762 494.044 375.542 489.726C349.542 471.133 351.74 472.766 335.042 471.133C320.613 469.722 307.567 479.998 292.679 479.998C284.955 479.998 285.149 492.248 277.542 492.633C248.542 503.633 238.439 521.033 210.542 528.226C187.542 537.633 173.796 553.755 152.042 563.726C130.082 573.791 114.986 582.226 96.042 595.633C82.3035 605.355 80.4337 613.869 68.542 625.133C63.542 648.633 72.042 656.633 68.542 674.633C63.0236 682.772 70.042 717.633 68.542 725.633C62.6241 736.613 70.542 756.133 68.542 769.133C64.7519 779.252 71.0649 803.595 68.542 814.133C63.896 833.537 73.6126 825.133 68.542 844.633Z" fill="#FFAB21"/>
<mask id="mask0_103_2011" style="mask-type:alpha" maskUnits="userSpaceOnUse" x="-68" y="-118" width="1145" height="1292">
<path d="M32 907.333V640.666C32.012 628.976 35.0981 617.493 40.9487 607.372C46.7994 597.25 55.2088 588.845 65.3334 583L298.667 449.666C308.801 443.815 320.298 440.735 332 440.735C343.702 440.735 355.199 443.815 365.333 449.666L598.667 583C608.791 588.845 617.201 597.25 623.051 607.372C628.902 617.493 631.988 628.976 632 640.666V907.333C631.988 919.024 628.902 930.506 623.051 940.628C617.201 950.749 608.791 959.154 598.667 965L365.333 1098.33C355.199 1104.18 343.702 1107.26 332 1107.26C320.298 1107.26 308.801 1104.18 298.667 1098.33L65.3334 965C55.2088 959.154 46.7994 950.749 40.9487 940.628C35.0981 930.506 32.012 919.024 32 907.333Z" stroke="#1E1E1E" stroke-width="4" stroke-linecap="round" stroke-linejoin="round"/>
<path d="M377 415.333V148.666C377.012 136.976 380.098 125.493 385.949 115.372C391.799 105.25 400.209 96.8453 410.333 90.9998L643.667 -42.3335C653.801 -48.1847 665.298 -51.2651 677 -51.2651C688.702 -51.2651 700.199 -48.1847 710.333 -42.3335L943.667 90.9998C953.791 96.8453 962.201 105.25 968.051 115.372C973.902 125.493 976.988 136.976 977 148.666V415.333C976.988 427.024 973.902 438.506 968.051 448.628C962.201 458.749 953.791 467.154 943.667 473L710.333 606.333C700.199 612.184 688.702 615.265 677 615.265C665.298 615.265 653.801 612.184 643.667 606.333L410.333 473C400.209 467.154 391.799 458.749 385.949 448.628C380.098 438.506 377.012 427.024 377 415.333Z" stroke="#1E1E1E" stroke-width="4" stroke-linecap="round" stroke-linejoin="round"/>
<path d="M419.5 398.667V165.333C419.511 155.104 422.211 145.057 427.33 136.2C432.449 127.344 439.808 119.99 448.667 114.875L652.833 -1.79175C661.701 -6.91157 671.76 -9.60693 682 -9.60693C692.24 -9.60693 702.299 -6.91157 711.167 -1.79175L915.333 114.875C924.192 119.99 931.551 127.344 936.67 136.2C941.789 145.057 944.49 155.104 944.5 165.333V398.667C944.49 408.896 941.789 418.943 936.67 427.799C931.551 436.656 924.192 444.01 915.333 449.125L711.167 565.792C702.299 570.911 692.24 573.607 682 573.607C671.76 573.607 661.701 570.911 652.833 565.792L448.667 449.125C439.808 444.01 432.449 436.656 427.33 427.799C422.211 418.943 419.511 408.896 419.5 398.667Z" stroke="#1E1E1E" stroke-width="4" stroke-linecap="round" stroke-linejoin="round"/>
<path d="M69.5 890.667V657.333C69.5105 647.104 72.2108 637.057 77.3301 628.2C82.4494 619.344 89.8077 611.99 98.6667 606.875L302.833 490.208C311.701 485.088 321.76 482.393 332 482.393C342.24 482.393 352.299 485.088 361.167 490.208L565.333 606.875C574.192 611.99 581.551 619.344 586.67 628.2C591.789 637.057 594.49 647.104 594.5 657.333V890.667C594.49 900.896 591.789 910.943 586.67 919.799C581.551 928.656 574.192 936.01 565.333 941.125L361.167 1057.79C352.299 1062.91 342.24 1065.61 332 1065.61C321.76 1065.61 311.701 1062.91 302.833 1057.79L98.6667 941.125C89.8077 936.01 82.4494 928.656 77.3301 919.799C72.2108 910.943 69.5105 900.896 69.5 890.667Z" stroke="#1E1E1E" stroke-width="4" stroke-linecap="round" stroke-linejoin="round"/>
</mask>
<g mask="url(#mask0_103_2011)">
<ellipse cx="634" cy="706" rx="634" ry="706" transform="matrix(-1 0 0 1 1138 -129)" fill="#25211F"/>
</g>
<path d="M653.5 203.5C641.634 203.5 626.459 208.719 610.747 215.977C595.13 223.19 580.458 231.674 568.974 237.677C553.622 245.701 540.788 260.727 533.257 274.614C515.813 315.74 510 327.341 510 359.5C510 371.609 511.078 377.529 513.177 382.693C515.52 388.457 519.041 393.344 525.528 404.272C538.633 426.351 558.217 444.734 581.974 457.151C603.089 468.188 627.481 474.5 653.5 474.5C668.072 474.5 675.694 473.84 682.384 471.868C689.183 469.864 695.436 466.403 707.286 459.648C719.682 452.583 734.934 442.11 744.112 432.635C749.552 427.017 757.34 419.499 765.064 411.245C772.848 402.927 779.344 395.107 782.047 389.664C790.41 372.827 794.047 350.161 794.047 329.402C794.047 322.28 795.061 317.252 795.428 314.01C795.773 310.96 795.816 308.18 794.353 303.209C791.451 293.35 787.376 283.931 782.27 275.09C776.712 265.467 769.932 256.528 762.113 248.455C735.434 220.91 696.711 203.5 653.5 203.5Z" fill="#FFC739" stroke="#25211F" stroke-width="15"/>
<path d="M249.721 785.961C209.558 843.32 204.643 909.174 238.742 933.05C272.842 956.927 333.043 929.785 373.205 872.426C413.368 815.068 406.715 745.113 384.184 725.337C361.654 705.561 289.884 728.603 249.721 785.961Z" fill="#25211F"/>
<path d="M585.093 433.57C573.842 423.974 556.379 418.297 534.388 417.432C512.512 416.572 486.868 420.519 460.13 429.374C406.628 447.092 349.749 484.124 310.955 539.527C271.874 595.341 252.164 656.441 251.575 709.879C250.985 763.361 269.467 808.345 305.753 833.753C342.04 859.161 390.632 861.143 440.687 842.297C490.7 823.466 541.375 784.048 580.456 728.233C619.212 672.884 632.71 609.488 630.154 554.503C627.579 499.101 608.839 453.822 585.093 433.57Z" fill="#FFC739" stroke="#25211F" stroke-width="15"/>
<path d="M275.255 625.162C223.491 697.819 235.843 794.382 302.845 840.841C369.847 887.3 466.126 866.06 517.889 793.403C533.195 771.92 556.27 776.351 528.271 754.06C498.083 730.028 476.704 779.656 443.459 775.431C407.049 770.803 424.997 771.278 398.178 765.753C371.36 760.228 359.538 756.299 337.322 730.899C309.614 710.693 313.402 686.899 310 646.5C286.944 623.433 289.143 605.667 275.255 625.162Z" fill="#25211F"/>
<path d="M539.499 548.932C530.573 554.18 501.435 550.468 489.144 535.675C482.074 527.167 474.74 516.241 467.479 503.932C459.967 491.198 441.983 488.551 434.999 474C432.532 468.858 409.607 456.175 407.269 451C392.892 419.184 412.328 383.621 407.269 364.175C403.489 349.648 416.753 347.606 438.333 352C455.11 355.416 490.77 350.148 513.499 358.5C525.884 363.051 545.229 370.788 557.499 375.5C569.658 380.169 560.894 394.39 571.644 398.318C581.627 401.967 590.574 396.053 598.269 398.318C613.928 402.929 623.931 412.986 623.622 407.369C622.866 393.583 681.863 438.408 715.269 487C726.5 513.5 720.791 532 732.478 548.932C742.703 571.133 740.814 589.103 732.479 596C702.769 606.098 675.499 614 675.499 614C675.499 614 647.792 619.082 623.622 606C605.551 596.218 604.499 607.5 564.499 577C543.123 567.232 544.674 545.89 539.499 548.932Z" fill="#25211F"/>
<path d="M599.301 475.295C592.724 474.032 583.155 477.563 571.363 489.113C559.901 500.338 547.837 517.75 536.697 540.078C514.447 584.669 496.547 647.52 494.16 715.862C491.762 784.523 501.274 846.74 518.307 891.753C526.829 914.275 537.098 932.131 548.384 944.353C559.643 956.546 571.485 962.711 583.424 963.128C595.362 963.545 607.605 958.221 619.687 946.843C631.798 935.438 643.289 918.342 653.361 896.469C673.492 852.754 687.321 791.352 689.718 722.691C692.104 654.386 678.533 593.721 659.417 549.334C649.854 527.128 638.988 509.192 628.212 496.454C617.252 483.497 607.143 476.801 599.301 475.295Z" fill="#443629" stroke="#25211F" stroke-width="15"/>
<path d="M515.883 428.161C513.946 421.519 506.306 414.442 490.605 409.025C475.323 403.751 454.256 400.747 429.242 400.811C379.283 400.939 315.067 413.3 253.106 442.193C190.852 471.222 139.825 508.1 107.581 543.964C91.4485 561.908 80.2712 579.317 74.5797 595.092C68.9031 610.826 68.8461 624.399 74.0078 635.468C79.1696 646.538 89.6031 655.218 105.305 660.983C121.048 666.764 141.569 669.392 165.684 668.567C213.884 666.92 274.934 651.535 337.188 622.506C399.114 593.629 446.892 553.784 477.622 516.317C492.995 497.573 503.967 479.588 510.353 464.043C516.843 448.243 518.173 436.011 515.883 428.161Z" fill="#4D3C35" stroke="#25211F" stroke-width="15"/>
<path d="M571.644 498C562.717 503.248 501.291 488.792 489 474C481.93 465.491 451.5 444.068 451.5 474C435.521 421.068 432.483 488.551 425.5 474C423.032 468.858 409.607 456.175 407.269 451C392.892 419.184 412.328 383.621 407.269 364.175C403.489 349.648 416.753 347.606 438.333 352C455.11 355.416 490.77 350.148 513.499 358.5C525.883 363.051 545.229 370.788 557.499 375.5C569.658 380.169 560.894 386.071 571.644 390C581.627 393.648 590.574 396.053 598.269 398.319C613.928 402.929 605.308 403.935 605 398.318C622.5 407.318 681.863 438.408 715.269 487C726.5 513.5 720.791 532 732.478 548.932C742.703 571.133 740.814 589.103 732.478 596C702.769 606.098 675.499 614 675.499 614C675.499 614 668.67 609.082 644.5 596C626.428 586.218 663.622 579.432 623.622 548.932C602.246 539.164 576.818 494.958 571.644 498Z" fill="#25211F"/>
<path d="M702 349.5C702 361.487 700.334 379.743 705 389.5C708.932 397.719 711.615 402.869 718 408.5C727.611 416.974 742.056 429 755 429C764.158 429 784.316 422.971 792 418.5C799.117 414.36 809.429 407.057 814.5 400C822.943 388.252 834 372.574 834 356C834 346.012 828.817 313.03 825.5 304.5C821.14 293.286 812.044 286.41 803.469 279.5C794.224 272.051 779.561 266.5 767.5 266.5C758.541 266.5 738.56 275.209 731 279.5C722.688 284.219 714.495 295.914 709 304.5C701.782 315.782 702 334.304 702 349.5Z" fill="#25211F"/>
<path d="M552 199C540.97 204.143 529.407 215.482 522.5 224C514.49 233.878 510.686 257.379 509.5 269C508.576 278.052 514.542 291.011 518.5 299.5C522.019 307.046 537.094 315.15 543.5 320.045C554.198 328.219 575.186 325.804 590 325.5C600.15 325.291 605.689 317.478 615.824 312.752C627.967 307.09 637.877 298.8 644.97 289.166C652.173 279.382 656.468 268.211 657.241 257C657.824 248.534 660.94 229.933 657.241 222C654.5 210 651.873 198.261 642 193C631.005 187.141 611.699 183.079 598 184.5C589.754 185.355 560.136 195.206 552 199Z" fill="#25211F"/>
<path d="M778.5 293L792 297L805.5 293L824 287.982L840 274L856 267.5L874 257.5L902 239L918 206.5L918 167L902 142L878 130.5L846 142" stroke="#25211F" stroke-width="15"/>
<ellipse cx="21.5" cy="15" rx="21.5" ry="15" transform="matrix(-1 0 0 1 862 126)" fill="#25211F"/>
<ellipse cx="21.5" cy="15" rx="21.5" ry="15" transform="matrix(-1 0 0 1 779 67)" fill="#25211F"/>
<path d="M669.132 211.324L669.896 204.933L649.652 176.312L649.444 138.287L656.586 105.804L668.433 83.3516L678.855 66.8939L695.516 53.4749L729.466 47.1483L753.06 59.2791L763.627 79.8467" stroke="#25211F" stroke-width="15"/>
</g>
<defs>
<clipPath id="clip0_103_2011">
<rect width="1000" height="1000" rx="80" transform="matrix(-1 0 0 1 1000 0)" fill="white"/>
</clipPath>
</defs>
</svg>
